{"accessors" : [{"bufferView" : 0, "byteOffset" : 0, "componentType" : 5123, "count" : 34560, "type" : "SCALAR", "max" : [34559], "min" : [0]}, {"bufferView" : 1, "byteOffset" : 0, "componentType" : 5126, "count" : 34560, "type" : "VEC3", "max" : [126.9046630859375, 89.14892578125, 85.6205825805664], "min" : [-126.9046630859375, -96.16670989990234, -83.6039047241211], "name" : "POSITION"}, {"bufferView" : 1, "byteOffset" : 12, "componentType" : 5126, "count" : 34560, "type" : "VEC3", "max" : [1.0000044107437134, 1.0000044107437134, 1.0000044107437134], "min" : [-1.0000044107437134, -1.0000044107437134, -1.0000044107437134], "name" : "NORMAL"}, {"bufferView" : 1, "byteOffset" : 24, "componentType" : 5126, "count" : 34560, "type" : "VEC2", "max" : [0.9968453049659729, -0.00036225924850441515], "min" : [0.00036225924850441515, -0.9996376633644104], "name" : "TEXCOORD_0"}, {"bufferView" : 0, "byteOffset" : 69120, "componentType" : 5123, "count" : 34176, "type" : "SCALAR", "max" : [34175], "min" : [0]}, {"bufferView" : 2, "byteOffset" : 0, "componentType" : 5126, "count" : 34176, "type" : "VEC3", "max" : [128.004638671875, 90.2489242553711, 86.72041320800781], "min" : [-128.004638671875, -97.25228118896484, -84.70307159423828], "name" : "POSITION"}, {"bufferView" : 2, "byteOffset" : 12, "componentType" : 5126, "count" : 34176, "type" : "VEC3", "max" : [1.0000044107437134, 1.0000044107437134, 1.0000044107437134], "min" : [-1.0000044107437134, -1.0000044107437134, -1.0000044107437134], "name" : "NORMAL"}, {"bufferView" : 2, "byteOffset" : 24, "componentType" : 5126, "count" : 34176, "type" : "VEC2", "max" : [0.9968453049659729, -0.00036225924850441515], "min" : [0.00036225924850441515, -0.9996376633644104], "name" : "TEXCOORD_0"}], "asset" : {"generator" : "Aspose.3D 23.6.0", "version" : "2.0"}, "buffers" : [{"uri" : "data:application/octet-stream;base64,", "byteLength" : 2337036}], "bufferViews" : [{"buffer" : 0, "byteOffset" : 0, "byteLength" : 137472, "target" : 34963}, {"buffer" : 0, "byteOffset" : 137476, "byteLength" : 1105920, "byteStride" : 32, "target" : 34962}, {"buffer" : 0, "byteOffset" : 1243400, "byteLength" : 1093632, "byteStride" : 32, "target" : 34962}], "materials" : [{"name" : "MAT", "pbrMetallicRoughness" : {"baseColorFactor" : [0.800000011920929, 0.800000011920929, 0.800000011920929, 1], "metallicFactor" : 0, "roughnessFactor" : 0}, "emissiveFactor" : [0.800000011920929, 0.800000011920929, 0.800000011920929], "alphaMode" : "OPAQUE", "doubleSided" : false}, {"name" : "Outline", "pbrMetallicRoughness" : {"baseColorFactor" : [0.800000011920929, 0.800000011920929, 0.800000011920929, 1], "metallicFactor" : 0, "roughnessFactor" : 0}, "emissiveFactor" : [0.800000011920929, 0.800000011920929, 0.800000011920929], "alphaMode" : "OPAQUE", "doubleSided" : false}], "meshes" : [{"primitives" : [{"attributes" : {"POSITION" : 1, "NORMAL" : 2, "TEXCOORD_0" : 3}, "indices" : 0, "material" : 0, "mode" : 4}, {"attributes" : {"POSITION" : 5, "NORMAL" : 6, "TEXCOORD_0" : 7}, "indices" : 4, "material" : 1, "mode" : 4}], "name" : "Cube.000"}], "nodes" : [{"matrix" : [1, 0, 0, 0, 0, 1, 0, 0, 0, 0, 1, 0, 21.81572914123535, 97.81261444091797, 0, 1], "mesh" : 0, "name" : "Cube"}], "scene" : 0, "scenes" : [{"nodes" : [0]}]}